<svg xmlns="http://www.w3.org/2000/svg" viewBox="0 0 64 64" fill="none">
  <defs>
    <linearGradient id="gold" x1="0%" y1="0%" x2="100%" y2="100%">
      <stop offset="0%" style="stop-color:#D4AF37"/>
      <stop offset="100%" style="stop-color:#FFD700"/>
    </linearGradient>
  </defs>
  <!-- Certificate border -->
  <rect x="4" y="8" width="56" height="48" rx="2" fill="url(#gold)"/>
  <rect x="8" y="12" width="48" height="40" rx="2" fill="#1a252f"/>
  <!-- Inner content -->
  <rect x="12" y="16" width="40" height="32" fill="#fff"/>
  <!-- Star/seal -->
  <circle cx="32" cy="26" r="8" fill="url(#gold)"/>
  <polygon points="32,18 34,24 40,24 35,28 37,34 32,30 27,34 29,28 24,24 30,24" fill="#1a252f"/>
  <!-- Lines representing text -->
  <rect x="18" y="38" width="28" height="2" fill="url(#gold)"/>
  <rect x="22" y="42" width="20" height="2" fill="url(#gold)"/>
  <!-- Ribbon -->
  <path d="M26 48 L26 56 L30 52 L34 56 L34 48" fill="url(#gold)"/>
  <path d="M30 48 L30 56 L34 52 L38 56 L38 48" fill="url(#gold)"/>
</svg>