<svg xmlns="http://www.w3.org/2000/svg" viewBox="0 0 64 64" fill="none">
  <defs>
    <linearGradient id="gold" x1="0%" y1="0%" x2="100%" y2="100%">
      <stop offset="0%" style="stop-color:#D4AF37"/>
      <stop offset="100%" style="stop-color:#FFD700"/>
    </linearGradient>
  </defs>
  <!-- Building -->
  <rect x="8" y="16" width="28" height="44" fill="url(#gold)"/>
  <rect x="36" y="28" width="20" height="32" fill="url(#gold)"/>
  <!-- Windows building 1 -->
  <rect x="12" y="20" width="6" height="6" fill="#1a252f"/>
  <rect x="22" y="20" width="6" height="6" fill="#1a252f"/>
  <rect x="12" y="30" width="6" height="6" fill="#1a252f"/>
  <rect x="22" y="30" width="6" height="6" fill="#1a252f"/>
  <rect x="12" y="40" width="6" height="6" fill="#1a252f"/>
  <rect x="22" y="40" width="6" height="6" fill="#1a252f"/>
  <!-- Door building 1 -->
  <rect x="16" y="50" width="10" height="10" fill="#1a252f"/>
  <!-- Windows building 2 -->
  <rect x="40" y="32" width="5" height="5" fill="#1a252f"/>
  <rect x="48" y="32" width="5" height="5" fill="#1a252f"/>
  <rect x="40" y="40" width="5" height="5" fill="#1a252f"/>
  <rect x="48" y="40" width="5" height="5" fill="#1a252f"/>
  <!-- Door building 2 -->
  <rect x="43" y="50" width="8" height="10" fill="#1a252f"/>
</svg>