<svg xmlns="http://www.w3.org/2000/svg" viewBox="0 0 64 64" fill="none">
  <defs>
    <linearGradient id="gold" x1="0%" y1="0%" x2="100%" y2="100%">
      <stop offset="0%" style="stop-color:#D4AF37"/>
      <stop offset="100%" style="stop-color:#FFD700"/>
    </linearGradient>
  </defs>
  <!-- Phone handset -->
  <path d="M12 8 C8 8 4 12 4 20 L4 24 C4 28 8 32 12 32 L16 32 L20 44 L28 36 L32 36 C40 36 48 28 48 20 L48 16 C48 8 40 4 32 4 L28 4" fill="none" stroke="url(#gold)" stroke-width="4"/>
  <!-- Ringing waves -->
  <path d="M44 12 C52 16 56 24 56 32" stroke="url(#gold)" stroke-width="3" fill="none" stroke-linecap="round"/>
  <path d="M48 8 C58 14 64 26 64 38" stroke="url(#gold)" stroke-width="3" fill="none" stroke-linecap="round"/>
  <!-- Phone body -->
  <ellipse cx="14" cy="18" rx="6" ry="10" fill="url(#gold)"/>
  <ellipse cx="34" cy="44" rx="10" ry="6" fill="url(#gold)"/>
  <rect x="14" y="24" width="20" height="20" fill="url(#gold)" transform="rotate(-45 24 34)"/>
</svg>