<svg xmlns="http://www.w3.org/2000/svg" viewBox="0 0 64 64" fill="none">
  <defs>
    <linearGradient id="gold" x1="0%" y1="0%" x2="100%" y2="100%">
      <stop offset="0%" style="stop-color:#D4AF37"/>
      <stop offset="100%" style="stop-color:#FFD700"/>
    </linearGradient>
  </defs>
  <!-- Wrench -->
  <path d="M12 8 C6 12 6 20 10 24 L28 42 L30 40 L12 22 C10 20 10 16 12 14 C14 12 18 12 20 14 L38 32 L40 30 L22 12 C18 6 10 6 12 8 Z" fill="url(#gold)"/>
  <!-- Screwdriver -->
  <rect x="36" y="36" width="6" height="20" rx="1" fill="url(#gold)" transform="rotate(45 39 46)"/>
  <path d="M50 50 L58 58 L56 60 L48 52 Z" fill="url(#gold)"/>
  <circle cx="54" cy="54" r="4" fill="#1a252f"/>
</svg>