<svg xmlns="http://www.w3.org/2000/svg" xmlns:xlink="http://www.w3.org/1999/xlink" width="85" zoomAndPan="magnify" viewBox="0 0 63.75 33.749998" height="45" preserveAspectRatio="xMidYMid meet" version="1.0"><defs><g/><clipPath id="45855230c3"><path d="M 0.109375 9.316406 L 15 9.316406 L 15 24 L 0.109375 24 Z M 0.109375 9.316406 " clip-rule="nonzero"/></clipPath><clipPath id="8f8eeb75fe"><path d="M 4 16 L 11 16 L 11 22 L 4 22 Z M 4 16 " clip-rule="nonzero"/></clipPath><clipPath id="907a5efaeb"><path d="M 4.996094 16.761719 L 10.113281 16.761719 C 10.308594 16.761719 10.472656 16.828125 10.609375 16.964844 C 10.742188 17.101562 10.8125 17.265625 10.8125 17.460938 L 10.8125 21.183594 C 10.8125 21.375 10.742188 21.539062 10.609375 21.675781 C 10.472656 21.8125 10.308594 21.878906 10.113281 21.878906 L 4.996094 21.878906 C 4.804688 21.878906 4.640625 21.8125 4.503906 21.675781 C 4.367188 21.539062 4.296875 21.375 4.296875 21.183594 L 4.296875 17.460938 C 4.296875 17.265625 4.367188 17.101562 4.503906 16.964844 C 4.640625 16.828125 4.804688 16.761719 4.996094 16.761719 Z M 4.996094 16.761719 " clip-rule="nonzero"/></clipPath><linearGradient x1="-0.0000000707858" gradientTransform="matrix(6.514246, 0, 0, 5.118336, 4.298026, 16.761304)" y1="-0.0000000707858" x2="1" gradientUnits="userSpaceOnUse" y2="1" id="b0642c88a9"><stop stop-opacity="1" stop-color="rgb(83.139038%, 68.629456%, 21.569824%)" offset="0"/><stop stop-opacity="1" stop-color="rgb(83.270264%, 68.751526%, 21.400452%)" offset="0.0078125"/><stop stop-opacity="1" stop-color="rgb(83.534241%, 68.995667%, 21.063232%)" offset="0.015625"/><stop stop-opacity="1" stop-color="rgb(83.796692%, 69.241333%, 20.726013%)" offset="0.0234375"/><stop stop-opacity="1" stop-color="rgb(84.060669%, 69.487%, 20.388794%)" offset="0.03125"/><stop stop-opacity="1" stop-color="rgb(84.324646%, 69.73114%, 20.051575%)" offset="0.0390625"/><stop stop-opacity="1" stop-color="rgb(84.587097%, 69.976807%, 19.714355%)" offset="0.046875"/><stop stop-opacity="1" stop-color="rgb(84.851074%, 70.220947%, 19.377136%)" offset="0.0546875"/><stop stop-opacity="1" stop-color="rgb(85.115051%, 70.466614%, 19.041443%)" offset="0.0625"/><stop stop-opacity="1" stop-color="rgb(85.377502%, 70.710754%, 18.704224%)" offset="0.0703125"/><stop stop-opacity="1" stop-color="rgb(85.641479%, 70.956421%, 18.367004%)" offset="0.078125"/><stop stop-opacity="1" stop-color="rgb(85.905457%, 71.200562%, 18.029785%)" offset="0.0859375"/><stop stop-opacity="1" stop-color="rgb(86.167908%, 71.446228%, 17.692566%)" offset="0.09375"/><stop stop-opacity="1" stop-color="rgb(86.431885%, 71.691895%, 17.355347%)" offset="0.101562"/><stop stop-opacity="1" stop-color="rgb(86.695862%, 71.936035%, 17.018127%)" offset="0.109375"/><stop stop-opacity="1" stop-color="rgb(86.958313%, 72.181702%, 16.680908%)" offset="0.117187"/><stop stop-opacity="1" stop-color="rgb(87.22229%, 72.425842%, 16.345215%)" offset="0.125"/><stop stop-opacity="1" stop-color="rgb(87.484741%, 72.671509%, 16.007996%)" offset="0.132812"/><stop stop-opacity="1" stop-color="rgb(87.748718%, 72.915649%, 15.670776%)" offset="0.140625"/><stop stop-opacity="1" stop-color="rgb(88.012695%, 73.161316%, 15.333557%)" offset="0.148438"/><stop stop-opacity="1" stop-color="rgb(88.275146%, 73.406982%, 14.996338%)" offset="0.15625"/><stop stop-opacity="1" stop-color="rgb(88.539124%, 73.651123%, 14.659119%)" offset="0.164062"/><stop stop-opacity="1" stop-color="rgb(88.803101%, 73.89679%, 14.321899%)" offset="0.171875"/><stop stop-opacity="1" stop-color="rgb(89.065552%, 74.14093%, 13.98468%)" offset="0.179687"/><stop stop-opacity="1" stop-color="rgb(89.329529%, 74.386597%, 13.648987%)" offset="0.1875"/><stop stop-opacity="1" stop-color="rgb(89.593506%, 74.630737%, 13.311768%)" offset="0.195312"/><stop stop-opacity="1" stop-color="rgb(89.855957%, 74.876404%, 12.974548%)" offset="0.203125"/><stop stop-opacity="1" stop-color="rgb(90.119934%, 75.120544%, 12.637329%)" offset="0.210937"/><stop stop-opacity="1" stop-color="rgb(90.383911%, 75.366211%, 12.30011%)" offset="0.21875"/><stop stop-opacity="1" stop-color="rgb(90.646362%, 75.611877%, 11.962891%)" offset="0.226562"/><stop stop-opacity="1" stop-color="rgb(90.910339%, 75.856018%, 11.625671%)" offset="0.234375"/><stop stop-opacity="1" stop-color="rgb(91.174316%, 76.101685%, 11.288452%)" offset="0.242187"/><stop stop-opacity="1" stop-color="rgb(91.436768%, 76.345825%, 10.952759%)" offset="0.25"/><stop stop-opacity="1" stop-color="rgb(91.700745%, 76.591492%, 10.61554%)" offset="0.257812"/><stop stop-opacity="1" stop-color="rgb(91.963196%, 76.835632%, 10.27832%)" offset="0.265625"/><stop stop-opacity="1" stop-color="rgb(92.227173%, 77.081299%, 9.941101%)" offset="0.273437"/><stop stop-opacity="1" stop-color="rgb(92.49115%, 77.326965%, 9.603882%)" offset="0.28125"/><stop stop-opacity="1" stop-color="rgb(92.753601%, 77.571106%, 9.266663%)" offset="0.289062"/><stop stop-opacity="1" stop-color="rgb(93.017578%, 77.816772%, 8.929443%)" offset="0.296875"/><stop stop-opacity="1" stop-color="rgb(93.281555%, 78.060913%, 8.592224%)" offset="0.304687"/><stop stop-opacity="1" stop-color="rgb(93.544006%, 78.30658%, 8.256531%)" offset="0.3125"/><stop stop-opacity="1" stop-color="rgb(93.807983%, 78.55072%, 7.919312%)" offset="0.320312"/><stop stop-opacity="1" stop-color="rgb(94.07196%, 78.796387%, 7.582092%)" offset="0.328125"/><stop stop-opacity="1" stop-color="rgb(94.334412%, 79.042053%, 7.244873%)" offset="0.335937"/><stop stop-opacity="1" stop-color="rgb(94.598389%, 79.286194%, 6.907654%)" offset="0.34375"/><stop stop-opacity="1" stop-color="rgb(94.862366%, 79.53186%, 6.570435%)" offset="0.351562"/><stop stop-opacity="1" stop-color="rgb(95.124817%, 79.776001%, 6.233215%)" offset="0.359375"/><stop stop-opacity="1" stop-color="rgb(95.388794%, 80.021667%, 5.895996%)" offset="0.367187"/><stop stop-opacity="1" stop-color="rgb(95.652771%, 80.265808%, 5.560303%)" offset="0.375"/><stop stop-opacity="1" stop-color="rgb(95.915222%, 80.511475%, 5.223083%)" offset="0.382812"/><stop stop-opacity="1" stop-color="rgb(96.179199%, 80.755615%, 4.885864%)" offset="0.390625"/><stop stop-opacity="1" stop-color="rgb(96.44165%, 81.001282%, 4.548645%)" offset="0.398437"/><stop stop-opacity="1" stop-color="rgb(96.705627%, 81.246948%, 4.211426%)" offset="0.40625"/><stop stop-opacity="1" stop-color="rgb(96.969604%, 81.491089%, 3.874207%)" offset="0.414062"/><stop stop-opacity="1" stop-color="rgb(97.232056%, 81.736755%, 3.536987%)" offset="0.421875"/><stop stop-opacity="1" stop-color="rgb(97.496033%, 81.980896%, 3.199768%)" offset="0.429687"/><stop stop-opacity="1" stop-color="rgb(97.76001%, 82.226562%, 2.864075%)" offset="0.4375"/><stop stop-opacity="1" stop-color="rgb(98.022461%, 82.470703%, 2.526855%)" offset="0.445312"/><stop stop-opacity="1" stop-color="rgb(98.286438%, 82.71637%, 2.189636%)" offset="0.453125"/><stop stop-opacity="1" stop-color="rgb(98.550415%, 82.962036%, 1.852417%)" offset="0.460937"/><stop stop-opacity="1" stop-color="rgb(98.812866%, 83.206177%, 1.515198%)" offset="0.46875"/><stop stop-opacity="1" stop-color="rgb(99.076843%, 83.451843%, 1.177979%)" offset="0.476562"/><stop stop-opacity="1" stop-color="rgb(99.34082%, 83.695984%, 0.840759%)" offset="0.484375"/><stop stop-opacity="1" stop-color="rgb(99.603271%, 83.94165%, 0.50354%)" offset="0.492187"/><stop stop-opacity="1" stop-color="rgb(99.867249%, 84.185791%, 0.167847%)" offset="0.5"/><stop stop-opacity="1" stop-color="rgb(99.998474%, 84.309387%, 0%)" offset="0.5"/><stop stop-opacity="1" stop-color="rgb(99.867249%, 84.185791%, 0.167847%)" offset="0.5"/><stop stop-opacity="1" stop-color="rgb(99.736023%, 84.063721%, 0.335693%)" offset="0.507812"/><stop stop-opacity="1" stop-color="rgb(99.603271%, 83.94165%, 0.50354%)" offset="0.515625"/><stop stop-opacity="1" stop-color="rgb(99.34082%, 83.695984%, 0.840759%)" offset="0.523438"/><stop stop-opacity="1" stop-color="rgb(99.076843%, 83.451843%, 1.177979%)" offset="0.53125"/><stop stop-opacity="1" stop-color="rgb(98.812866%, 83.206177%, 1.515198%)" offset="0.539062"/><stop stop-opacity="1" stop-color="rgb(98.550415%, 82.962036%, 1.852417%)" offset="0.546875"/><stop stop-opacity="1" stop-color="rgb(98.286438%, 82.71637%, 2.189636%)" offset="0.554688"/><stop stop-opacity="1" stop-color="rgb(98.022461%, 82.470703%, 2.526855%)" offset="0.5625"/><stop stop-opacity="1" stop-color="rgb(97.76001%, 82.226562%, 2.864075%)" offset="0.570313"/><stop stop-opacity="1" stop-color="rgb(97.496033%, 81.980896%, 3.199768%)" offset="0.578125"/><stop stop-opacity="1" stop-color="rgb(97.232056%, 81.736755%, 3.536987%)" offset="0.585938"/><stop stop-opacity="1" stop-color="rgb(96.969604%, 81.491089%, 3.874207%)" offset="0.59375"/><stop stop-opacity="1" stop-color="rgb(96.705627%, 81.246948%, 4.211426%)" offset="0.601562"/><stop stop-opacity="1" stop-color="rgb(96.44165%, 81.001282%, 4.548645%)" offset="0.609375"/><stop stop-opacity="1" stop-color="rgb(96.179199%, 80.755615%, 4.885864%)" offset="0.617188"/><stop stop-opacity="1" stop-color="rgb(95.915222%, 80.511475%, 5.223083%)" offset="0.625"/><stop stop-opacity="1" stop-color="rgb(95.652771%, 80.265808%, 5.560303%)" offset="0.632812"/><stop stop-opacity="1" stop-color="rgb(95.388794%, 80.021667%, 5.895996%)" offset="0.640625"/><stop stop-opacity="1" stop-color="rgb(95.124817%, 79.776001%, 6.233215%)" offset="0.648437"/><stop stop-opacity="1" stop-color="rgb(94.862366%, 79.53186%, 6.570435%)" offset="0.65625"/><stop stop-opacity="1" stop-color="rgb(94.598389%, 79.286194%, 6.907654%)" offset="0.664063"/><stop stop-opacity="1" stop-color="rgb(94.334412%, 79.042053%, 7.244873%)" offset="0.671875"/><stop stop-opacity="1" stop-color="rgb(94.07196%, 78.796387%, 7.582092%)" offset="0.679688"/><stop stop-opacity="1" stop-color="rgb(93.807983%, 78.55072%, 7.919312%)" offset="0.6875"/><stop stop-opacity="1" stop-color="rgb(93.544006%, 78.30658%, 8.256531%)" offset="0.695312"/><stop stop-opacity="1" stop-color="rgb(93.281555%, 78.060913%, 8.592224%)" offset="0.703125"/><stop stop-opacity="1" stop-color="rgb(93.017578%, 77.816772%, 8.929443%)" offset="0.710938"/><stop stop-opacity="1" stop-color="rgb(92.753601%, 77.571106%, 9.266663%)" offset="0.71875"/><stop stop-opacity="1" stop-color="rgb(92.49115%, 77.326965%, 9.603882%)" offset="0.726562"/><stop stop-opacity="1" stop-color="rgb(92.227173%, 77.081299%, 9.941101%)" offset="0.734375"/><stop stop-opacity="1" stop-color="rgb(91.963196%, 76.835632%, 10.27832%)" offset="0.742187"/><stop stop-opacity="1" stop-color="rgb(91.700745%, 76.591492%, 10.61554%)" offset="0.75"/><stop stop-opacity="1" stop-color="rgb(91.436768%, 76.345825%, 10.952759%)" offset="0.757813"/><stop stop-opacity="1" stop-color="rgb(91.174316%, 76.101685%, 11.288452%)" offset="0.765625"/><stop stop-opacity="1" stop-color="rgb(90.910339%, 75.856018%, 11.625671%)" offset="0.773438"/><stop stop-opacity="1" stop-color="rgb(90.646362%, 75.611877%, 11.962891%)" offset="0.78125"/><stop stop-opacity="1" stop-color="rgb(90.383911%, 75.366211%, 12.30011%)" offset="0.789062"/><stop stop-opacity="1" stop-color="rgb(90.119934%, 75.12207%, 12.637329%)" offset="0.796875"/><stop stop-opacity="1" stop-color="rgb(89.855957%, 74.876404%, 12.974548%)" offset="0.804688"/><stop stop-opacity="1" stop-color="rgb(89.593506%, 74.630737%, 13.311768%)" offset="0.8125"/><stop stop-opacity="1" stop-color="rgb(89.329529%, 74.386597%, 13.648987%)" offset="0.820312"/><stop stop-opacity="1" stop-color="rgb(89.065552%, 74.14093%, 13.98468%)" offset="0.828125"/><stop stop-opacity="1" stop-color="rgb(88.803101%, 73.89679%, 14.321899%)" offset="0.835937"/><stop stop-opacity="1" stop-color="rgb(88.539124%, 73.651123%, 14.659119%)" offset="0.84375"/><stop stop-opacity="1" stop-color="rgb(88.275146%, 73.406982%, 14.996338%)" offset="0.851563"/><stop stop-opacity="1" stop-color="rgb(88.012695%, 73.161316%, 15.333557%)" offset="0.859375"/><stop stop-opacity="1" stop-color="rgb(87.748718%, 72.915649%, 15.670776%)" offset="0.867188"/><stop stop-opacity="1" stop-color="rgb(87.484741%, 72.671509%, 16.007996%)" offset="0.875"/><stop stop-opacity="1" stop-color="rgb(87.22229%, 72.425842%, 16.345215%)" offset="0.882812"/><stop stop-opacity="1" stop-color="rgb(86.958313%, 72.181702%, 16.680908%)" offset="0.890625"/><stop stop-opacity="1" stop-color="rgb(86.695862%, 71.936035%, 17.018127%)" offset="0.898438"/><stop stop-opacity="1" stop-color="rgb(86.431885%, 71.691895%, 17.355347%)" offset="0.90625"/><stop stop-opacity="1" stop-color="rgb(86.167908%, 71.446228%, 17.692566%)" offset="0.914062"/><stop stop-opacity="1" stop-color="rgb(85.905457%, 71.200562%, 18.029785%)" offset="0.921875"/><stop stop-opacity="1" stop-color="rgb(85.641479%, 70.956421%, 18.367004%)" offset="0.929687"/><stop stop-opacity="1" stop-color="rgb(85.377502%, 70.710754%, 18.704224%)" offset="0.9375"/><stop stop-opacity="1" stop-color="rgb(85.115051%, 70.466614%, 19.041443%)" offset="0.945312"/><stop stop-opacity="1" stop-color="rgb(84.851074%, 70.220947%, 19.377136%)" offset="0.953125"/><stop stop-opacity="1" stop-color="rgb(84.587097%, 69.976807%, 19.714355%)" offset="0.960938"/><stop stop-opacity="1" stop-color="rgb(84.324646%, 69.73114%, 20.051575%)" offset="0.96875"/><stop stop-opacity="1" stop-color="rgb(84.060669%, 69.487%, 20.388794%)" offset="0.976562"/><stop stop-opacity="1" stop-color="rgb(83.796692%, 69.241333%, 20.726013%)" offset="0.984375"/><stop stop-opacity="1" stop-color="rgb(83.534241%, 68.995667%, 21.063232%)" offset="0.992188"/><stop stop-opacity="1" stop-color="rgb(83.270264%, 68.751526%, 21.400452%)" offset="1"/></linearGradient><clipPath id="7a7b03bbf2"><path d="M 0.109375 9.316406 L 15 9.316406 L 15 24 L 0.109375 24 Z M 0.109375 9.316406 " clip-rule="nonzero"/></clipPath><linearGradient x1="-0.21875" gradientTransform="matrix(16.000001, 0, 0, 16.000001, 24.000001, 16)" y1="-0.21875" x2="1.15625" gradientUnits="userSpaceOnUse" y2="1.15625" id="112ff559a2"><stop stop-opacity="1" stop-color="rgb(83.139038%, 68.629456%, 21.569824%)" offset="0"/><stop stop-opacity="1" stop-color="rgb(83.139038%, 68.629456%, 21.569824%)" offset="0.125"/><stop stop-opacity="1" stop-color="rgb(83.139038%, 68.629456%, 21.569824%)" offset="0.15625"/><stop stop-opacity="1" stop-color="rgb(83.253479%, 68.736267%, 21.421814%)" offset="0.164063"/><stop stop-opacity="1" stop-color="rgb(83.551025%, 69.010925%, 21.04187%)" offset="0.167969"/><stop stop-opacity="1" stop-color="rgb(83.732605%, 69.180298%, 20.811462%)" offset="0.171875"/><stop stop-opacity="1" stop-color="rgb(83.912659%, 69.348145%, 20.579529%)" offset="0.175781"/><stop stop-opacity="1" stop-color="rgb(84.094238%, 69.517517%, 20.347595%)" offset="0.179688"/><stop stop-opacity="1" stop-color="rgb(84.274292%, 69.685364%, 20.115662%)" offset="0.183594"/><stop stop-opacity="1" stop-color="rgb(84.455872%, 69.854736%, 19.883728%)" offset="0.1875"/><stop stop-opacity="1" stop-color="rgb(84.637451%, 70.022583%, 19.651794%)" offset="0.191406"/><stop stop-opacity="1" stop-color="rgb(84.819031%, 70.19043%, 19.421387%)" offset="0.195313"/><stop stop-opacity="1" stop-color="rgb(84.999084%, 70.358276%, 19.189453%)" offset="0.199219"/><stop stop-opacity="1" stop-color="rgb(85.180664%, 70.527649%, 18.95752%)" offset="0.203125"/><stop stop-opacity="1" stop-color="rgb(85.362244%, 70.695496%, 18.725586%)" offset="0.207031"/><stop stop-opacity="1" stop-color="rgb(85.543823%, 70.864868%, 18.493652%)" offset="0.210938"/><stop stop-opacity="1" stop-color="rgb(85.723877%, 71.032715%, 18.261719%)" offset="0.214844"/><stop stop-opacity="1" stop-color="rgb(85.905457%, 71.202087%, 18.029785%)" offset="0.21875"/><stop stop-opacity="1" stop-color="rgb(86.08551%, 71.369934%, 17.797852%)" offset="0.222656"/><stop stop-opacity="1" stop-color="rgb(86.26709%, 71.539307%, 17.567444%)" offset="0.226562"/><stop stop-opacity="1" stop-color="rgb(86.448669%, 71.707153%, 17.33551%)" offset="0.230469"/><stop stop-opacity="1" stop-color="rgb(86.630249%, 71.875%, 17.103577%)" offset="0.234375"/><stop stop-opacity="1" stop-color="rgb(86.810303%, 72.042847%, 16.871643%)" offset="0.238281"/><stop stop-opacity="1" stop-color="rgb(86.991882%, 72.212219%, 16.639709%)" offset="0.242188"/><stop stop-opacity="1" stop-color="rgb(87.171936%, 72.380066%, 16.407776%)" offset="0.246094"/><stop stop-opacity="1" stop-color="rgb(87.353516%, 72.549438%, 16.177368%)" offset="0.25"/><stop stop-opacity="1" stop-color="rgb(87.535095%, 72.717285%, 15.945435%)" offset="0.253906"/><stop stop-opacity="1" stop-color="rgb(87.716675%, 72.886658%, 15.713501%)" offset="0.257812"/><stop stop-opacity="1" stop-color="rgb(87.896729%, 73.054504%, 15.481567%)" offset="0.261719"/><stop stop-opacity="1" stop-color="rgb(88.078308%, 73.222351%, 15.249634%)" offset="0.265625"/><stop stop-opacity="1" stop-color="rgb(88.259888%, 73.390198%, 15.0177%)" offset="0.269531"/><stop stop-opacity="1" stop-color="rgb(88.441467%, 73.55957%, 14.785767%)" offset="0.273438"/><stop stop-opacity="1" stop-color="rgb(88.621521%, 73.727417%, 14.553833%)" offset="0.277344"/><stop stop-opacity="1" stop-color="rgb(88.803101%, 73.89679%, 14.323425%)" offset="0.28125"/><stop stop-opacity="1" stop-color="rgb(88.983154%, 74.064636%, 14.091492%)" offset="0.285156"/><stop stop-opacity="1" stop-color="rgb(89.164734%, 74.234009%, 13.859558%)" offset="0.289062"/><stop stop-opacity="1" stop-color="rgb(89.346313%, 74.401855%, 13.627625%)" offset="0.292969"/><stop stop-opacity="1" stop-color="rgb(89.527893%, 74.571228%, 13.395691%)" offset="0.296875"/><stop stop-opacity="1" stop-color="rgb(89.707947%, 74.739075%, 13.163757%)" offset="0.300781"/><stop stop-opacity="1" stop-color="rgb(89.889526%, 74.906921%, 12.93335%)" offset="0.304688"/><stop stop-opacity="1" stop-color="rgb(90.071106%, 75.074768%, 12.701416%)" offset="0.308594"/><stop stop-opacity="1" stop-color="rgb(90.252686%, 75.244141%, 12.469482%)" offset="0.3125"/><stop stop-opacity="1" stop-color="rgb(90.432739%, 75.411987%, 12.237549%)" offset="0.316406"/><stop stop-opacity="1" stop-color="rgb(90.614319%, 75.58136%, 12.005615%)" offset="0.320313"/><stop stop-opacity="1" stop-color="rgb(90.794373%, 75.749207%, 11.773682%)" offset="0.324219"/><stop stop-opacity="1" stop-color="rgb(90.975952%, 75.918579%, 11.543274%)" offset="0.328125"/><stop stop-opacity="1" stop-color="rgb(91.157532%, 76.086426%, 11.31134%)" offset="0.332031"/><stop stop-opacity="1" stop-color="rgb(91.339111%, 76.254272%, 11.079407%)" offset="0.335938"/><stop stop-opacity="1" stop-color="rgb(91.519165%, 76.422119%, 10.847473%)" offset="0.339844"/><stop stop-opacity="1" stop-color="rgb(91.700745%, 76.591492%, 10.61554%)" offset="0.34375"/><stop stop-opacity="1" stop-color="rgb(91.882324%, 76.759338%, 10.383606%)" offset="0.347656"/><stop stop-opacity="1" stop-color="rgb(92.063904%, 76.928711%, 10.151672%)" offset="0.351563"/><stop stop-opacity="1" stop-color="rgb(92.243958%, 77.096558%, 9.919739%)" offset="0.355469"/><stop stop-opacity="1" stop-color="rgb(92.425537%, 77.26593%, 9.689331%)" offset="0.359375"/><stop stop-opacity="1" stop-color="rgb(92.605591%, 77.433777%, 9.457397%)" offset="0.363281"/><stop stop-opacity="1" stop-color="rgb(92.78717%, 77.601624%, 9.225464%)" offset="0.367188"/><stop stop-opacity="1" stop-color="rgb(92.96875%, 77.76947%, 8.99353%)" offset="0.371094"/><stop stop-opacity="1" stop-color="rgb(93.15033%, 77.938843%, 8.761597%)" offset="0.375"/><stop stop-opacity="1" stop-color="rgb(93.330383%, 78.106689%, 8.529663%)" offset="0.378906"/><stop stop-opacity="1" stop-color="rgb(93.511963%, 78.276062%, 8.299255%)" offset="0.382812"/><stop stop-opacity="1" stop-color="rgb(93.692017%, 78.443909%, 8.067322%)" offset="0.386719"/><stop stop-opacity="1" stop-color="rgb(93.873596%, 78.613281%, 7.835388%)" offset="0.390625"/><stop stop-opacity="1" stop-color="rgb(94.055176%, 78.781128%, 7.603455%)" offset="0.394531"/><stop stop-opacity="1" stop-color="rgb(94.236755%, 78.9505%, 7.371521%)" offset="0.398438"/><stop stop-opacity="1" stop-color="rgb(94.416809%, 79.118347%, 7.139587%)" offset="0.402344"/><stop stop-opacity="1" stop-color="rgb(94.598389%, 79.286194%, 6.907654%)" offset="0.40625"/><stop stop-opacity="1" stop-color="rgb(94.779968%, 79.454041%, 6.67572%)" offset="0.410156"/><stop stop-opacity="1" stop-color="rgb(94.961548%, 79.623413%, 6.445312%)" offset="0.414063"/><stop stop-opacity="1" stop-color="rgb(95.141602%, 79.79126%, 6.213379%)" offset="0.417969"/><stop stop-opacity="1" stop-color="rgb(95.323181%, 79.960632%, 5.981445%)" offset="0.421875"/><stop stop-opacity="1" stop-color="rgb(95.503235%, 80.128479%, 5.749512%)" offset="0.425781"/><stop stop-opacity="1" stop-color="rgb(95.684814%, 80.297852%, 5.517578%)" offset="0.429688"/><stop stop-opacity="1" stop-color="rgb(95.866394%, 80.465698%, 5.285645%)" offset="0.433594"/><stop stop-opacity="1" stop-color="rgb(96.047974%, 80.633545%, 5.055237%)" offset="0.4375"/><stop stop-opacity="1" stop-color="rgb(96.228027%, 80.801392%, 4.823303%)" offset="0.441406"/><stop stop-opacity="1" stop-color="rgb(96.409607%, 80.970764%, 4.59137%)" offset="0.445313"/><stop stop-opacity="1" stop-color="rgb(96.591187%, 81.138611%, 4.359436%)" offset="0.449219"/><stop stop-opacity="1" stop-color="rgb(96.772766%, 81.307983%, 4.127502%)" offset="0.453125"/><stop stop-opacity="1" stop-color="rgb(96.95282%, 81.47583%, 3.895569%)" offset="0.457031"/><stop stop-opacity="1" stop-color="rgb(97.134399%, 81.645203%, 3.665161%)" offset="0.460938"/><stop stop-opacity="1" stop-color="rgb(97.314453%, 81.813049%, 3.433228%)" offset="0.464844"/><stop stop-opacity="1" stop-color="rgb(97.496033%, 81.982422%, 3.201294%)" offset="0.46875"/><stop stop-opacity="1" stop-color="rgb(97.677612%, 82.150269%, 2.96936%)" offset="0.472656"/><stop stop-opacity="1" stop-color="rgb(97.859192%, 82.318115%, 2.737427%)" offset="0.476562"/><stop stop-opacity="1" stop-color="rgb(98.039246%, 82.485962%, 2.505493%)" offset="0.480469"/><stop stop-opacity="1" stop-color="rgb(98.220825%, 82.655334%, 2.27356%)" offset="0.484375"/><stop stop-opacity="1" stop-color="rgb(98.402405%, 82.823181%, 2.041626%)" offset="0.488281"/><stop stop-opacity="1" stop-color="rgb(98.583984%, 82.992554%, 1.811218%)" offset="0.492188"/><stop stop-opacity="1" stop-color="rgb(98.764038%, 83.1604%, 1.579285%)" offset="0.496094"/><stop stop-opacity="1" stop-color="rgb(98.945618%, 83.329773%, 1.347351%)" offset="0.5"/><stop stop-opacity="1" stop-color="rgb(99.125671%, 83.49762%, 1.115417%)" offset="0.503906"/><stop stop-opacity="1" stop-color="rgb(99.307251%, 83.665466%, 0.883484%)" offset="0.507812"/><stop stop-opacity="1" stop-color="rgb(99.488831%, 83.833313%, 0.65155%)" offset="0.511719"/><stop stop-opacity="1" stop-color="rgb(99.67041%, 84.002686%, 0.421143%)" offset="0.515625"/><stop stop-opacity="1" stop-color="rgb(99.636841%, 83.972168%, 0.462341%)" offset="0.522727"/><stop stop-opacity="1" stop-color="rgb(99.604797%, 83.94165%, 0.505066%)" offset="0.53125"/><stop stop-opacity="1" stop-color="rgb(99.423218%, 83.772278%, 0.737%)" offset="0.535156"/><stop stop-opacity="1" stop-color="rgb(99.241638%, 83.604431%, 0.968933%)" offset="0.539062"/><stop stop-opacity="1" stop-color="rgb(99.060059%, 83.436584%, 1.199341%)" offset="0.542969"/><stop stop-opacity="1" stop-color="rgb(98.880005%, 83.268738%, 1.431274%)" offset="0.546875"/><stop stop-opacity="1" stop-color="rgb(98.698425%, 83.099365%, 1.663208%)" offset="0.550781"/><stop stop-opacity="1" stop-color="rgb(98.516846%, 82.931519%, 1.895142%)" offset="0.554688"/><stop stop-opacity="1" stop-color="rgb(98.335266%, 82.762146%, 2.127075%)" offset="0.558594"/><stop stop-opacity="1" stop-color="rgb(98.155212%, 82.594299%, 2.359009%)" offset="0.5625"/><stop stop-opacity="1" stop-color="rgb(97.973633%, 82.424927%, 2.589417%)" offset="0.566406"/><stop stop-opacity="1" stop-color="rgb(97.793579%, 82.25708%, 2.82135%)" offset="0.570313"/><stop stop-opacity="1" stop-color="rgb(97.612%, 82.087708%, 3.053284%)" offset="0.574219"/><stop stop-opacity="1" stop-color="rgb(97.43042%, 81.919861%, 3.285217%)" offset="0.578125"/><stop stop-opacity="1" stop-color="rgb(97.24884%, 81.752014%, 3.517151%)" offset="0.582031"/><stop stop-opacity="1" stop-color="rgb(97.068787%, 81.584167%, 3.749084%)" offset="0.585938"/><stop stop-opacity="1" stop-color="rgb(96.887207%, 81.414795%, 3.979492%)" offset="0.589844"/><stop stop-opacity="1" stop-color="rgb(96.705627%, 81.246948%, 4.211426%)" offset="0.59375"/><stop stop-opacity="1" stop-color="rgb(96.524048%, 81.077576%, 4.443359%)" offset="0.597656"/><stop stop-opacity="1" stop-color="rgb(96.343994%, 80.909729%, 4.675293%)" offset="0.601562"/><stop stop-opacity="1" stop-color="rgb(96.162415%, 80.740356%, 4.907227%)" offset="0.605469"/><stop stop-opacity="1" stop-color="rgb(95.982361%, 80.57251%, 5.13916%)" offset="0.609375"/><stop stop-opacity="1" stop-color="rgb(95.800781%, 80.404663%, 5.371094%)" offset="0.613281"/><stop stop-opacity="1" stop-color="rgb(95.619202%, 80.236816%, 5.603027%)" offset="0.617188"/><stop stop-opacity="1" stop-color="rgb(95.437622%, 80.067444%, 5.833435%)" offset="0.621094"/><stop stop-opacity="1" stop-color="rgb(95.257568%, 79.899597%, 6.065369%)" offset="0.625"/><stop stop-opacity="1" stop-color="rgb(95.075989%, 79.730225%, 6.297302%)" offset="0.628906"/><stop stop-opacity="1" stop-color="rgb(94.894409%, 79.562378%, 6.529236%)" offset="0.632812"/><stop stop-opacity="1" stop-color="rgb(94.71283%, 79.393005%, 6.761169%)" offset="0.636719"/><stop stop-opacity="1" stop-color="rgb(94.532776%, 79.225159%, 6.993103%)" offset="0.640625"/><stop stop-opacity="1" stop-color="rgb(94.351196%, 79.055786%, 7.223511%)" offset="0.644531"/><stop stop-opacity="1" stop-color="rgb(94.171143%, 78.887939%, 7.455444%)" offset="0.648438"/><stop stop-opacity="1" stop-color="rgb(93.989563%, 78.720093%, 7.687378%)" offset="0.652344"/><stop stop-opacity="1" stop-color="rgb(93.807983%, 78.552246%, 7.919312%)" offset="0.65625"/><stop stop-opacity="1" stop-color="rgb(93.626404%, 78.382874%, 8.151245%)" offset="0.660156"/><stop stop-opacity="1" stop-color="rgb(93.44635%, 78.215027%, 8.383179%)" offset="0.664063"/><stop stop-opacity="1" stop-color="rgb(93.264771%, 78.045654%, 8.615112%)" offset="0.667969"/><stop stop-opacity="1" stop-color="rgb(93.084717%, 77.877808%, 8.847046%)" offset="0.671875"/><stop stop-opacity="1" stop-color="rgb(92.903137%, 77.708435%, 9.077454%)" offset="0.675781"/><stop stop-opacity="1" stop-color="rgb(92.721558%, 77.540588%, 9.309387%)" offset="0.679688"/><stop stop-opacity="1" stop-color="rgb(92.539978%, 77.372742%, 9.541321%)" offset="0.683594"/><stop stop-opacity="1" stop-color="rgb(92.359924%, 77.204895%, 9.773254%)" offset="0.6875"/><stop stop-opacity="1" stop-color="rgb(92.178345%, 77.035522%, 10.005188%)" offset="0.691406"/><stop stop-opacity="1" stop-color="rgb(91.996765%, 76.867676%, 10.237122%)" offset="0.695313"/><stop stop-opacity="1" stop-color="rgb(91.815186%, 76.698303%, 10.467529%)" offset="0.699219"/><stop stop-opacity="1" stop-color="rgb(91.635132%, 76.530457%, 10.699463%)" offset="0.703125"/><stop stop-opacity="1" stop-color="rgb(91.453552%, 76.361084%, 10.931396%)" offset="0.707031"/><stop stop-opacity="1" stop-color="rgb(91.273499%, 76.193237%, 11.16333%)" offset="0.710938"/><stop stop-opacity="1" stop-color="rgb(91.091919%, 76.023865%, 11.395264%)" offset="0.714844"/><stop stop-opacity="1" stop-color="rgb(90.910339%, 75.856018%, 11.627197%)" offset="0.71875"/><stop stop-opacity="1" stop-color="rgb(90.72876%, 75.688171%, 11.857605%)" offset="0.722656"/><stop stop-opacity="1" stop-color="rgb(90.548706%, 75.520325%, 12.089539%)" offset="0.726563"/><stop stop-opacity="1" stop-color="rgb(90.367126%, 75.350952%, 12.321472%)" offset="0.730469"/><stop stop-opacity="1" stop-color="rgb(90.185547%, 75.183105%, 12.553406%)" offset="0.734375"/><stop stop-opacity="1" stop-color="rgb(90.003967%, 75.013733%, 12.785339%)" offset="0.738281"/><stop stop-opacity="1" stop-color="rgb(89.823914%, 74.845886%, 13.017273%)" offset="0.742188"/><stop stop-opacity="1" stop-color="rgb(89.642334%, 74.676514%, 13.249207%)" offset="0.746094"/><stop stop-opacity="1" stop-color="rgb(89.46228%, 74.508667%, 13.48114%)" offset="0.75"/><stop stop-opacity="1" stop-color="rgb(89.280701%, 74.34082%, 13.711548%)" offset="0.753906"/><stop stop-opacity="1" stop-color="rgb(89.099121%, 74.172974%, 13.943481%)" offset="0.757813"/><stop stop-opacity="1" stop-color="rgb(88.917542%, 74.003601%, 14.175415%)" offset="0.761719"/><stop stop-opacity="1" stop-color="rgb(88.737488%, 73.835754%, 14.407349%)" offset="0.765625"/><stop stop-opacity="1" stop-color="rgb(88.555908%, 73.666382%, 14.639282%)" offset="0.769531"/><stop stop-opacity="1" stop-color="rgb(88.374329%, 73.498535%, 14.871216%)" offset="0.773438"/><stop stop-opacity="1" stop-color="rgb(88.192749%, 73.329163%, 15.101624%)" offset="0.777344"/><stop stop-opacity="1" stop-color="rgb(88.012695%, 73.161316%, 15.333557%)" offset="0.78125"/><stop stop-opacity="1" stop-color="rgb(87.831116%, 72.993469%, 15.565491%)" offset="0.785156"/><stop stop-opacity="1" stop-color="rgb(87.651062%, 72.825623%, 15.797424%)" offset="0.789062"/><stop stop-opacity="1" stop-color="rgb(87.469482%, 72.65625%, 16.029358%)" offset="0.792969"/><stop stop-opacity="1" stop-color="rgb(87.287903%, 72.488403%, 16.261292%)" offset="0.796875"/><stop stop-opacity="1" stop-color="rgb(87.106323%, 72.319031%, 16.493225%)" offset="0.800781"/><stop stop-opacity="1" stop-color="rgb(86.92627%, 72.151184%, 16.725159%)" offset="0.804688"/><stop stop-opacity="1" stop-color="rgb(86.74469%, 71.981812%, 16.955566%)" offset="0.808594"/><stop stop-opacity="1" stop-color="rgb(86.564636%, 71.813965%, 17.1875%)" offset="0.8125"/><stop stop-opacity="1" stop-color="rgb(86.383057%, 71.644592%, 17.419434%)" offset="0.816406"/><stop stop-opacity="1" stop-color="rgb(86.201477%, 71.476746%, 17.651367%)" offset="0.820313"/><stop stop-opacity="1" stop-color="rgb(86.019897%, 71.308899%, 17.883301%)" offset="0.824219"/><stop stop-opacity="1" stop-color="rgb(85.839844%, 71.141052%, 18.115234%)" offset="0.828125"/><stop stop-opacity="1" stop-color="rgb(85.658264%, 70.97168%, 18.345642%)" offset="0.832031"/><stop stop-opacity="1" stop-color="rgb(85.476685%, 70.803833%, 18.577576%)" offset="0.835938"/><stop stop-opacity="1" stop-color="rgb(85.295105%, 70.63446%, 18.809509%)" offset="0.839844"/><stop stop-opacity="1" stop-color="rgb(85.115051%, 70.466614%, 19.041443%)" offset="0.84375"/><stop stop-opacity="1" stop-color="rgb(84.933472%, 70.297241%, 19.273376%)" offset="0.847656"/><stop stop-opacity="1" stop-color="rgb(84.753418%, 70.129395%, 19.50531%)" offset="0.851563"/><stop stop-opacity="1" stop-color="rgb(84.571838%, 69.961548%, 19.735718%)" offset="0.855469"/><stop stop-opacity="1" stop-color="rgb(84.390259%, 69.793701%, 19.967651%)" offset="0.859375"/><stop stop-opacity="1" stop-color="rgb(84.208679%, 69.624329%, 20.199585%)" offset="0.863281"/><stop stop-opacity="1" stop-color="rgb(84.028625%, 69.456482%, 20.431519%)" offset="0.867188"/><stop stop-opacity="1" stop-color="rgb(83.847046%, 69.287109%, 20.663452%)" offset="0.871094"/><stop stop-opacity="1" stop-color="rgb(83.665466%, 69.119263%, 20.895386%)" offset="0.875"/><stop stop-opacity="1" stop-color="rgb(83.483887%, 68.94989%, 21.127319%)" offset="0.878906"/><stop stop-opacity="1" stop-color="rgb(83.303833%, 68.782043%, 21.359253%)" offset="0.882812"/><stop stop-opacity="1" stop-color="rgb(83.221436%, 68.70575%, 21.464539%)" offset="0.890625"/><stop stop-opacity="1" stop-color="rgb(83.139038%, 68.629456%, 21.569824%)" offset="0.90625"/><stop stop-opacity="1" stop-color="rgb(83.139038%, 68.629456%, 21.569824%)" offset="0.9375"/><stop stop-opacity="1" stop-color="rgb(83.139038%, 68.629456%, 21.569824%)" offset="1"/></linearGradient></defs><g clip-path="url(#45855230c3)"><path fill="#1a252f" d="M 14.535156 16.761719 C 14.535156 17.21875 14.488281 17.671875 14.402344 18.121094 C 14.3125 18.574219 14.179688 19.007812 14.003906 19.433594 C 13.828125 19.855469 13.613281 20.257812 13.359375 20.640625 C 13.105469 21.019531 12.816406 21.371094 12.492188 21.695312 C 12.167969 22.019531 11.8125 22.308594 11.433594 22.566406 C 11.050781 22.820312 10.648438 23.035156 10.226562 23.210938 C 9.800781 23.386719 9.367188 23.515625 8.917969 23.605469 C 8.46875 23.695312 8.011719 23.742188 7.554688 23.742188 C 7.097656 23.742188 6.644531 23.695312 6.195312 23.605469 C 5.742188 23.515625 5.308594 23.386719 4.882812 23.210938 C 4.460938 23.035156 4.058594 22.820312 3.675781 22.566406 C 3.296875 22.308594 2.945312 22.019531 2.621094 21.695312 C 2.296875 21.371094 2.007812 21.019531 1.75 20.640625 C 1.496094 20.257812 1.28125 19.855469 1.105469 19.433594 C 0.929688 19.007812 0.800781 18.574219 0.710938 18.121094 C 0.621094 17.671875 0.574219 17.21875 0.574219 16.761719 C 0.574219 16.304688 0.621094 15.847656 0.710938 15.398438 C 0.800781 14.949219 0.929688 14.515625 1.105469 14.089844 C 1.28125 13.667969 1.496094 13.265625 1.75 12.882812 C 2.007812 12.503906 2.296875 12.148438 2.621094 11.824219 C 2.945312 11.503906 3.296875 11.210938 3.675781 10.957031 C 4.058594 10.703125 4.460938 10.488281 4.882812 10.3125 C 5.308594 10.136719 5.742188 10.003906 6.195312 9.914062 C 6.644531 9.828125 7.097656 9.78125 7.554688 9.78125 C 8.011719 9.78125 8.46875 9.828125 8.917969 9.914062 C 9.367188 10.003906 9.800781 10.136719 10.226562 10.3125 C 10.648438 10.488281 11.050781 10.703125 11.433594 10.957031 C 11.8125 11.210938 12.167969 11.503906 12.492188 11.824219 C 12.816406 12.148438 13.105469 12.503906 13.359375 12.882812 C 13.613281 13.265625 13.828125 13.667969 14.003906 14.089844 C 14.179688 14.515625 14.3125 14.949219 14.402344 15.398438 C 14.488281 15.847656 14.535156 16.304688 14.535156 16.761719 Z M 14.535156 16.761719 " fill-opacity="1" fill-rule="nonzero"/></g><g clip-path="url(#8f8eeb75fe)"><g clip-path="url(#907a5efaeb)"><path fill="url(#b0642c88a9)" d="M 4.296875 16.761719 L 4.296875 21.878906 L 10.8125 21.878906 L 10.8125 16.761719 Z M 4.296875 16.761719 " fill-rule="nonzero"/></g></g><g clip-path="url(#7a7b03bbf2)"><path stroke-linecap="round" transform="matrix(0.232652, 0, 0, 0.232652, 0.110296, 9.316452)" fill="none" stroke-linejoin="miter" d="M 24.00592 32.001783 L 24.00592 21.994868 C 24.00592 14.002769 40.00691 14.002769 40.00691 21.994868 L 40.00691 32.001783 " stroke="url(#112ff559a2)" stroke-width="5" stroke-miterlimit="4"/></g><path fill="#1a252f" d="M 8.484375 18.621094 C 8.484375 18.878906 8.394531 19.097656 8.214844 19.28125 C 8.03125 19.460938 7.8125 19.554688 7.554688 19.554688 C 7.296875 19.554688 7.078125 19.460938 6.898438 19.28125 C 6.714844 19.097656 6.625 18.878906 6.625 18.621094 C 6.625 18.367188 6.714844 18.144531 6.898438 17.964844 C 7.078125 17.78125 7.296875 17.691406 7.554688 17.691406 C 7.8125 17.691406 8.03125 17.78125 8.214844 17.964844 C 8.394531 18.144531 8.484375 18.367188 8.484375 18.621094 Z M 8.484375 18.621094 " fill-opacity="1" fill-rule="nonzero"/><path fill="#1a252f" d="M 7.089844 18.621094 L 8.019531 18.621094 L 8.019531 20.484375 L 7.089844 20.484375 Z M 7.089844 18.621094 " fill-opacity="1" fill-rule="nonzero"/><g fill="#ffffff" fill-opacity="1"><g transform="translate(15.537588, 10.006148)"><g><path d="M 0.203125 -1.6875 L 2.140625 -1.6875 L 2.140625 -3.03125 L 1.8125 -3.03125 C 1.40625 -3.03125 1.101562 -3.0625 0.90625 -3.125 C 0.707031 -3.195312 0.550781 -3.328125 0.4375 -3.515625 C 0.382812 -3.597656 0.335938 -3.6875 0.296875 -3.78125 C 0.265625 -3.875 0.238281 -3.984375 0.21875 -4.109375 C 0.195312 -4.234375 0.179688 -4.378906 0.171875 -4.546875 C 0.160156 -4.722656 0.15625 -4.925781 0.15625 -5.15625 L 0.15625 -5.625 C 0.15625 -6.582031 0.316406 -7.195312 0.640625 -7.46875 C 0.710938 -7.53125 0.785156 -7.578125 0.859375 -7.609375 C 0.929688 -7.648438 1.023438 -7.675781 1.140625 -7.6875 C 1.253906 -7.707031 1.398438 -7.722656 1.578125 -7.734375 C 1.765625 -7.742188 2 -7.75 2.28125 -7.75 L 4.0625 -7.75 L 4.0625 -6.0625 L 2.234375 -6.0625 L 2.234375 -4.71875 L 2.609375 -4.71875 C 2.941406 -4.71875 3.21875 -4.6875 3.4375 -4.625 C 3.65625 -4.570312 3.828125 -4.46875 3.953125 -4.3125 C 4.078125 -4.15625 4.160156 -3.941406 4.203125 -3.671875 C 4.242188 -3.410156 4.265625 -3.070312 4.265625 -2.65625 L 4.265625 -2.1875 C 4.265625 -1.71875 4.238281 -1.335938 4.1875 -1.046875 C 4.132812 -0.765625 4.050781 -0.550781 3.9375 -0.40625 C 3.820312 -0.269531 3.695312 -0.171875 3.5625 -0.109375 C 3.425781 -0.046875 3.242188 -0.0078125 3.015625 0 L 0.203125 0 Z M 0.203125 -1.6875 "/></g></g></g><g fill="#ffffff" fill-opacity="1"><g transform="translate(19.956277, 10.006148)"><g><path d="M 1.71875 0 C 1.375 0 1.117188 -0.015625 0.953125 -0.046875 C 0.785156 -0.0859375 0.648438 -0.15625 0.546875 -0.25 C 0.492188 -0.3125 0.453125 -0.367188 0.421875 -0.421875 C 0.390625 -0.484375 0.363281 -0.5625 0.34375 -0.65625 C 0.320312 -0.75 0.304688 -0.867188 0.296875 -1.015625 C 0.296875 -1.171875 0.296875 -1.367188 0.296875 -1.609375 L 0.296875 -4.75 C 0.296875 -5.175781 0.390625 -5.484375 0.578125 -5.671875 C 0.671875 -5.765625 0.8125 -5.832031 1 -5.875 C 1.195312 -5.914062 1.472656 -5.9375 1.828125 -5.9375 L 3.28125 -5.9375 C 3.894531 -5.9375 4.316406 -5.847656 4.546875 -5.671875 C 4.597656 -5.628906 4.640625 -5.582031 4.671875 -5.53125 C 4.710938 -5.488281 4.742188 -5.429688 4.765625 -5.359375 C 4.785156 -5.285156 4.796875 -5.191406 4.796875 -5.078125 C 4.804688 -4.972656 4.8125 -4.835938 4.8125 -4.671875 L 4.8125 -2.234375 L 2.140625 -2.234375 L 2.140625 -1.921875 C 2.140625 -1.710938 2.1875 -1.570312 2.28125 -1.5 C 2.375 -1.4375 2.546875 -1.40625 2.796875 -1.40625 L 4.8125 -1.40625 L 4.8125 0 Z M 2.96875 -3.359375 L 2.96875 -3.890625 C 2.96875 -4.085938 2.929688 -4.242188 2.859375 -4.359375 C 2.785156 -4.484375 2.679688 -4.546875 2.546875 -4.546875 C 2.421875 -4.546875 2.320312 -4.484375 2.25 -4.359375 C 2.175781 -4.242188 2.140625 -4.085938 2.140625 -3.890625 L 2.140625 -3.359375 Z M 2.96875 -3.359375 "/></g></g></g><g fill="#ffffff" fill-opacity="1"><g transform="translate(25.036034, 10.006148)"><g><path d="M 1.609375 0 C 1.265625 0 1.003906 -0.0234375 0.828125 -0.078125 C 0.660156 -0.140625 0.53125 -0.25 0.4375 -0.40625 C 0.40625 -0.457031 0.378906 -0.503906 0.359375 -0.546875 C 0.347656 -0.585938 0.335938 -0.648438 0.328125 -0.734375 C 0.316406 -0.828125 0.304688 -0.945312 0.296875 -1.09375 C 0.296875 -1.25 0.296875 -1.472656 0.296875 -1.765625 L 0.296875 -4.609375 C 0.296875 -4.765625 0.296875 -4.882812 0.296875 -4.96875 C 0.296875 -5.050781 0.296875 -5.117188 0.296875 -5.171875 C 0.304688 -5.222656 0.316406 -5.265625 0.328125 -5.296875 C 0.335938 -5.328125 0.351562 -5.363281 0.375 -5.40625 C 0.40625 -5.507812 0.445312 -5.59375 0.5 -5.65625 C 0.5625 -5.726562 0.640625 -5.785156 0.734375 -5.828125 C 0.828125 -5.867188 0.945312 -5.894531 1.09375 -5.90625 C 1.238281 -5.925781 1.410156 -5.9375 1.609375 -5.9375 L 3.28125 -5.9375 L 3.28125 -4.546875 L 2.671875 -4.546875 C 2.554688 -4.546875 2.460938 -4.535156 2.390625 -4.515625 C 2.328125 -4.492188 2.273438 -4.453125 2.234375 -4.390625 C 2.203125 -4.335938 2.175781 -4.265625 2.15625 -4.171875 C 2.144531 -4.078125 2.140625 -3.945312 2.140625 -3.78125 L 2.140625 -2.109375 C 2.140625 -1.953125 2.144531 -1.828125 2.15625 -1.734375 C 2.175781 -1.648438 2.203125 -1.582031 2.234375 -1.53125 C 2.273438 -1.476562 2.332031 -1.441406 2.40625 -1.421875 C 2.476562 -1.410156 2.578125 -1.40625 2.703125 -1.40625 L 3.28125 -1.40625 L 3.28125 0 Z M 1.609375 0 "/></g></g></g><g fill="#ffffff" fill-opacity="1"><g transform="translate(28.434134, 10.006148)"><g><path d="M 2.28125 0 C 2.039062 0 1.835938 -0.00390625 1.671875 -0.015625 C 1.503906 -0.0234375 1.363281 -0.046875 1.25 -0.078125 C 1.132812 -0.109375 1.035156 -0.148438 0.953125 -0.203125 C 0.867188 -0.265625 0.785156 -0.335938 0.703125 -0.421875 C 0.640625 -0.484375 0.582031 -0.554688 0.53125 -0.640625 C 0.476562 -0.722656 0.4375 -0.816406 0.40625 -0.921875 C 0.382812 -1.023438 0.367188 -1.148438 0.359375 -1.296875 C 0.347656 -1.441406 0.34375 -1.617188 0.34375 -1.828125 L 0.34375 -5.9375 L 2.1875 -5.9375 L 2.1875 -2.015625 C 2.1875 -1.585938 2.320312 -1.375 2.59375 -1.375 C 2.757812 -1.375 2.875 -1.425781 2.9375 -1.53125 C 3.007812 -1.632812 3.046875 -1.796875 3.046875 -2.015625 L 3.046875 -5.9375 L 4.90625 -5.9375 L 4.90625 -1.828125 C 4.90625 -1.617188 4.894531 -1.441406 4.875 -1.296875 C 4.863281 -1.148438 4.84375 -1.023438 4.8125 -0.921875 C 4.789062 -0.816406 4.753906 -0.722656 4.703125 -0.640625 C 4.648438 -0.554688 4.59375 -0.484375 4.53125 -0.421875 C 4.445312 -0.335938 4.363281 -0.265625 4.28125 -0.203125 C 4.195312 -0.148438 4.097656 -0.109375 3.984375 -0.078125 C 3.867188 -0.046875 3.726562 -0.0234375 3.5625 -0.015625 C 3.394531 -0.00390625 3.191406 0 2.953125 0 Z M 2.28125 0 "/></g></g></g><g fill="#ffffff" fill-opacity="1"><g transform="translate(33.664661, 10.006148)"><g><path d="M 0.34375 -5.9375 L 2.1875 -5.9375 L 2.1875 -5.171875 C 2.363281 -5.472656 2.535156 -5.679688 2.703125 -5.796875 C 2.878906 -5.921875 3.101562 -5.984375 3.375 -5.984375 C 3.4375 -5.984375 3.488281 -5.976562 3.53125 -5.96875 C 3.570312 -5.957031 3.628906 -5.9375 3.703125 -5.90625 L 3.5625 -3.90625 C 3.425781 -3.96875 3.304688 -4.019531 3.203125 -4.0625 C 3.097656 -4.113281 2.992188 -4.160156 2.890625 -4.203125 C 2.785156 -4.242188 2.675781 -4.28125 2.5625 -4.3125 C 2.457031 -4.351562 2.332031 -4.398438 2.1875 -4.453125 L 2.1875 0 L 0.34375 0 Z M 0.34375 -5.9375 "/></g></g></g><g fill="#ffffff" fill-opacity="1"><g transform="translate(37.468776, 10.006148)"><g><path d="M 1.71875 0 C 1.375 0 1.117188 -0.015625 0.953125 -0.046875 C 0.785156 -0.0859375 0.648438 -0.15625 0.546875 -0.25 C 0.492188 -0.3125 0.453125 -0.367188 0.421875 -0.421875 C 0.390625 -0.484375 0.363281 -0.5625 0.34375 -0.65625 C 0.320312 -0.75 0.304688 -0.867188 0.296875 -1.015625 C 0.296875 -1.171875 0.296875 -1.367188 0.296875 -1.609375 L 0.296875 -4.75 C 0.296875 -5.175781 0.390625 -5.484375 0.578125 -5.671875 C 0.671875 -5.765625 0.8125 -5.832031 1 -5.875 C 1.195312 -5.914062 1.472656 -5.9375 1.828125 -5.9375 L 3.28125 -5.9375 C 3.894531 -5.9375 4.316406 -5.847656 4.546875 -5.671875 C 4.597656 -5.628906 4.640625 -5.582031 4.671875 -5.53125 C 4.710938 -5.488281 4.742188 -5.429688 4.765625 -5.359375 C 4.785156 -5.285156 4.796875 -5.191406 4.796875 -5.078125 C 4.804688 -4.972656 4.8125 -4.835938 4.8125 -4.671875 L 4.8125 -2.234375 L 2.140625 -2.234375 L 2.140625 -1.921875 C 2.140625 -1.710938 2.1875 -1.570312 2.28125 -1.5 C 2.375 -1.4375 2.546875 -1.40625 2.796875 -1.40625 L 4.8125 -1.40625 L 4.8125 0 Z M 2.96875 -3.359375 L 2.96875 -3.890625 C 2.96875 -4.085938 2.929688 -4.242188 2.859375 -4.359375 C 2.785156 -4.484375 2.679688 -4.546875 2.546875 -4.546875 C 2.421875 -4.546875 2.320312 -4.484375 2.25 -4.359375 C 2.175781 -4.242188 2.140625 -4.085938 2.140625 -3.890625 L 2.140625 -3.359375 Z M 2.96875 -3.359375 "/></g></g></g><g fill="#ffffff" fill-opacity="1"><g transform="translate(42.548534, 10.006148)"><g/></g></g><g fill="#ffffff" fill-opacity="1"><g transform="translate(45.297163, 10.006148)"><g><path d="M 0.375 -5.78125 C 0.375 -6.25 0.363281 -6.628906 0.34375 -6.921875 C 0.320312 -7.222656 0.289062 -7.5 0.25 -7.75 L 2.640625 -7.75 C 2.578125 -7.4375 2.53125 -7.125 2.5 -6.8125 C 2.46875 -6.507812 2.453125 -6.1875 2.453125 -5.84375 L 2.453125 -1.6875 L 3.84375 -1.765625 L 3.46875 0 L 0.375 0 Z M 0.375 -5.78125 "/></g></g></g><g fill="#ffffff" fill-opacity="1"><g transform="translate(49.066392, 10.006148)"><g><path d="M 2.078125 0 C 1.628906 0 1.289062 -0.0195312 1.0625 -0.0625 C 0.84375 -0.113281 0.675781 -0.191406 0.5625 -0.296875 C 0.5 -0.359375 0.453125 -0.414062 0.421875 -0.46875 C 0.390625 -0.519531 0.363281 -0.585938 0.34375 -0.671875 C 0.320312 -0.765625 0.304688 -0.882812 0.296875 -1.03125 C 0.296875 -1.1875 0.296875 -1.394531 0.296875 -1.65625 L 0.296875 -4.28125 C 0.296875 -4.539062 0.296875 -4.742188 0.296875 -4.890625 C 0.304688 -5.046875 0.320312 -5.164062 0.34375 -5.25 C 0.363281 -5.34375 0.390625 -5.414062 0.421875 -5.46875 C 0.453125 -5.53125 0.5 -5.585938 0.5625 -5.640625 C 0.675781 -5.742188 0.84375 -5.816406 1.0625 -5.859375 C 1.289062 -5.910156 1.628906 -5.9375 2.078125 -5.9375 L 3.09375 -5.9375 C 3.539062 -5.9375 3.875 -5.910156 4.09375 -5.859375 C 4.320312 -5.816406 4.492188 -5.742188 4.609375 -5.640625 C 4.660156 -5.585938 4.703125 -5.53125 4.734375 -5.46875 C 4.773438 -5.414062 4.804688 -5.34375 4.828125 -5.25 C 4.847656 -5.164062 4.859375 -5.046875 4.859375 -4.890625 C 4.859375 -4.742188 4.859375 -4.539062 4.859375 -4.28125 L 4.859375 -1.65625 C 4.859375 -1.394531 4.859375 -1.1875 4.859375 -1.03125 C 4.859375 -0.882812 4.847656 -0.765625 4.828125 -0.671875 C 4.804688 -0.585938 4.773438 -0.519531 4.734375 -0.46875 C 4.703125 -0.414062 4.660156 -0.359375 4.609375 -0.296875 C 4.492188 -0.191406 4.320312 -0.113281 4.09375 -0.0625 C 3.875 -0.0195312 3.539062 0 3.09375 0 Z M 3.015625 -3.890625 C 3.015625 -4.109375 2.976562 -4.269531 2.90625 -4.375 C 2.84375 -4.476562 2.726562 -4.53125 2.5625 -4.53125 C 2.28125 -4.53125 2.140625 -4.316406 2.140625 -3.890625 L 2.140625 -2.015625 C 2.140625 -1.796875 2.175781 -1.632812 2.25 -1.53125 C 2.320312 -1.425781 2.4375 -1.375 2.59375 -1.375 C 2.875 -1.375 3.015625 -1.585938 3.015625 -2.015625 Z M 3.015625 -3.890625 "/></g></g></g><g fill="#ffffff" fill-opacity="1"><g transform="translate(54.227327, 10.006148)"><g><path d="M 1.609375 0 C 1.265625 0 1.003906 -0.0234375 0.828125 -0.078125 C 0.660156 -0.140625 0.53125 -0.25 0.4375 -0.40625 C 0.40625 -0.457031 0.378906 -0.503906 0.359375 -0.546875 C 0.347656 -0.585938 0.335938 -0.648438 0.328125 -0.734375 C 0.316406 -0.828125 0.304688 -0.945312 0.296875 -1.09375 C 0.296875 -1.25 0.296875 -1.472656 0.296875 -1.765625 L 0.296875 -4.609375 C 0.296875 -4.765625 0.296875 -4.882812 0.296875 -4.96875 C 0.296875 -5.050781 0.296875 -5.117188 0.296875 -5.171875 C 0.304688 -5.222656 0.316406 -5.265625 0.328125 -5.296875 C 0.335938 -5.328125 0.351562 -5.363281 0.375 -5.40625 C 0.40625 -5.507812 0.445312 -5.59375 0.5 -5.65625 C 0.5625 -5.726562 0.640625 -5.785156 0.734375 -5.828125 C 0.828125 -5.867188 0.945312 -5.894531 1.09375 -5.90625 C 1.238281 -5.925781 1.410156 -5.9375 1.609375 -5.9375 L 3.28125 -5.9375 L 3.28125 -4.546875 L 2.671875 -4.546875 C 2.554688 -4.546875 2.460938 -4.535156 2.390625 -4.515625 C 2.328125 -4.492188 2.273438 -4.453125 2.234375 -4.390625 C 2.203125 -4.335938 2.175781 -4.265625 2.15625 -4.171875 C 2.144531 -4.078125 2.140625 -3.945312 2.140625 -3.78125 L 2.140625 -2.109375 C 2.140625 -1.953125 2.144531 -1.828125 2.15625 -1.734375 C 2.175781 -1.648438 2.203125 -1.582031 2.234375 -1.53125 C 2.273438 -1.476562 2.332031 -1.441406 2.40625 -1.421875 C 2.476562 -1.410156 2.578125 -1.40625 2.703125 -1.40625 L 3.28125 -1.40625 L 3.28125 0 Z M 1.609375 0 "/></g></g></g><g fill="#ffffff" fill-opacity="1"><g transform="translate(57.695064, 10.006148)"><g><path d="M 0.34375 -7.75 L 2.1875 -7.75 L 2.1875 -3.671875 L 2.421875 -3.671875 C 2.535156 -3.671875 2.628906 -3.6875 2.703125 -3.71875 C 2.785156 -3.75 2.847656 -3.800781 2.890625 -3.875 C 2.929688 -3.945312 2.957031 -4.046875 2.96875 -4.171875 C 2.988281 -4.296875 3 -4.453125 3 -4.640625 L 3 -5.9375 L 4.859375 -5.9375 L 4.859375 -4.71875 C 4.859375 -4.46875 4.835938 -4.253906 4.796875 -4.078125 C 4.753906 -3.898438 4.679688 -3.75 4.578125 -3.625 C 4.472656 -3.507812 4.332031 -3.40625 4.15625 -3.3125 C 3.976562 -3.226562 3.75 -3.15625 3.46875 -3.09375 C 3.96875 -3 4.320312 -2.84375 4.53125 -2.625 C 4.75 -2.414062 4.859375 -2.109375 4.859375 -1.703125 L 4.859375 -1.203125 C 4.859375 -1.015625 4.859375 -0.863281 4.859375 -0.75 C 4.859375 -0.632812 4.863281 -0.535156 4.875 -0.453125 C 4.882812 -0.378906 4.898438 -0.304688 4.921875 -0.234375 C 4.941406 -0.171875 4.960938 -0.09375 4.984375 0 L 3.140625 0 C 3.085938 -0.175781 3.050781 -0.34375 3.03125 -0.5 C 3.007812 -0.664062 3 -0.878906 3 -1.140625 L 3 -1.421875 C 3 -1.929688 2.820312 -2.1875 2.46875 -2.1875 L 2.1875 -2.1875 L 2.1875 0 L 0.34375 0 Z M 0.34375 -7.75 "/></g></g></g><g fill="#ffffff" fill-opacity="1"><g transform="translate(20.306947, 25.640338)"><g><path d="M 0.203125 -1.6875 L 2.140625 -1.6875 L 2.140625 -3.03125 L 1.8125 -3.03125 C 1.40625 -3.03125 1.101562 -3.0625 0.90625 -3.125 C 0.707031 -3.195312 0.550781 -3.328125 0.4375 -3.515625 C 0.382812 -3.597656 0.335938 -3.6875 0.296875 -3.78125 C 0.265625 -3.875 0.238281 -3.984375 0.21875 -4.109375 C 0.195312 -4.234375 0.179688 -4.378906 0.171875 -4.546875 C 0.160156 -4.722656 0.15625 -4.925781 0.15625 -5.15625 L 0.15625 -5.625 C 0.15625 -6.582031 0.316406 -7.195312 0.640625 -7.46875 C 0.710938 -7.53125 0.785156 -7.578125 0.859375 -7.609375 C 0.929688 -7.648438 1.023438 -7.675781 1.140625 -7.6875 C 1.253906 -7.707031 1.398438 -7.722656 1.578125 -7.734375 C 1.765625 -7.742188 2 -7.75 2.28125 -7.75 L 4.0625 -7.75 L 4.0625 -6.0625 L 2.234375 -6.0625 L 2.234375 -4.71875 L 2.609375 -4.71875 C 2.941406 -4.71875 3.21875 -4.6875 3.4375 -4.625 C 3.65625 -4.570312 3.828125 -4.46875 3.953125 -4.3125 C 4.078125 -4.15625 4.160156 -3.941406 4.203125 -3.671875 C 4.242188 -3.410156 4.265625 -3.070312 4.265625 -2.65625 L 4.265625 -2.1875 C 4.265625 -1.71875 4.238281 -1.335938 4.1875 -1.046875 C 4.132812 -0.765625 4.050781 -0.550781 3.9375 -0.40625 C 3.820312 -0.269531 3.695312 -0.171875 3.5625 -0.109375 C 3.425781 -0.046875 3.242188 -0.0078125 3.015625 0 L 0.203125 0 Z M 0.203125 -1.6875 "/></g></g></g><g fill="#ffffff" fill-opacity="1"><g transform="translate(24.725635, 25.640338)"><g><path d="M 2.078125 0 C 1.628906 0 1.289062 -0.0195312 1.0625 -0.0625 C 0.84375 -0.113281 0.675781 -0.191406 0.5625 -0.296875 C 0.5 -0.359375 0.453125 -0.414062 0.421875 -0.46875 C 0.390625 -0.519531 0.363281 -0.585938 0.34375 -0.671875 C 0.320312 -0.765625 0.304688 -0.882812 0.296875 -1.03125 C 0.296875 -1.1875 0.296875 -1.394531 0.296875 -1.65625 L 0.296875 -4.28125 C 0.296875 -4.539062 0.296875 -4.742188 0.296875 -4.890625 C 0.304688 -5.046875 0.320312 -5.164062 0.34375 -5.25 C 0.363281 -5.34375 0.390625 -5.414062 0.421875 -5.46875 C 0.453125 -5.53125 0.5 -5.585938 0.5625 -5.640625 C 0.675781 -5.742188 0.84375 -5.816406 1.0625 -5.859375 C 1.289062 -5.910156 1.628906 -5.9375 2.078125 -5.9375 L 3.09375 -5.9375 C 3.539062 -5.9375 3.875 -5.910156 4.09375 -5.859375 C 4.320312 -5.816406 4.492188 -5.742188 4.609375 -5.640625 C 4.660156 -5.585938 4.703125 -5.53125 4.734375 -5.46875 C 4.773438 -5.414062 4.804688 -5.34375 4.828125 -5.25 C 4.847656 -5.164062 4.859375 -5.046875 4.859375 -4.890625 C 4.859375 -4.742188 4.859375 -4.539062 4.859375 -4.28125 L 4.859375 -1.65625 C 4.859375 -1.394531 4.859375 -1.1875 4.859375 -1.03125 C 4.859375 -0.882812 4.847656 -0.765625 4.828125 -0.671875 C 4.804688 -0.585938 4.773438 -0.519531 4.734375 -0.46875 C 4.703125 -0.414062 4.660156 -0.359375 4.609375 -0.296875 C 4.492188 -0.191406 4.320312 -0.113281 4.09375 -0.0625 C 3.875 -0.0195312 3.539062 0 3.09375 0 Z M 3.015625 -3.890625 C 3.015625 -4.109375 2.976562 -4.269531 2.90625 -4.375 C 2.84375 -4.476562 2.726562 -4.53125 2.5625 -4.53125 C 2.28125 -4.53125 2.140625 -4.316406 2.140625 -3.890625 L 2.140625 -2.015625 C 2.140625 -1.796875 2.175781 -1.632812 2.25 -1.53125 C 2.320312 -1.425781 2.4375 -1.375 2.59375 -1.375 C 2.875 -1.375 3.015625 -1.585938 3.015625 -2.015625 Z M 3.015625 -3.890625 "/></g></g></g><g fill="#ffffff" fill-opacity="1"><g transform="translate(29.886571, 25.640338)"><g><path d="M 0.34375 -7.75 L 2.1875 -7.75 L 2.1875 0 L 0.34375 0 Z M 0.34375 -7.75 "/></g></g></g><g fill="#ffffff" fill-opacity="1"><g transform="translate(32.414862, 25.640338)"><g><path d="M 2.28125 0 C 2.039062 0 1.835938 -0.00390625 1.671875 -0.015625 C 1.503906 -0.0234375 1.363281 -0.046875 1.25 -0.078125 C 1.132812 -0.109375 1.035156 -0.148438 0.953125 -0.203125 C 0.867188 -0.265625 0.785156 -0.335938 0.703125 -0.421875 C 0.640625 -0.484375 0.582031 -0.554688 0.53125 -0.640625 C 0.476562 -0.722656 0.4375 -0.816406 0.40625 -0.921875 C 0.382812 -1.023438 0.367188 -1.148438 0.359375 -1.296875 C 0.347656 -1.441406 0.34375 -1.617188 0.34375 -1.828125 L 0.34375 -5.9375 L 2.1875 -5.9375 L 2.1875 -2.015625 C 2.1875 -1.585938 2.320312 -1.375 2.59375 -1.375 C 2.757812 -1.375 2.875 -1.425781 2.9375 -1.53125 C 3.007812 -1.632812 3.046875 -1.796875 3.046875 -2.015625 L 3.046875 -5.9375 L 4.90625 -5.9375 L 4.90625 -1.828125 C 4.90625 -1.617188 4.894531 -1.441406 4.875 -1.296875 C 4.863281 -1.148438 4.84375 -1.023438 4.8125 -0.921875 C 4.789062 -0.816406 4.753906 -0.722656 4.703125 -0.640625 C 4.648438 -0.554688 4.59375 -0.484375 4.53125 -0.421875 C 4.445312 -0.335938 4.363281 -0.265625 4.28125 -0.203125 C 4.195312 -0.148438 4.097656 -0.109375 3.984375 -0.078125 C 3.867188 -0.046875 3.726562 -0.0234375 3.5625 -0.015625 C 3.394531 -0.00390625 3.191406 0 2.953125 0 Z M 2.28125 0 "/></g></g></g><g fill="#ffffff" fill-opacity="1"><g transform="translate(37.645389, 25.640338)"><g><path d="M 1.703125 0 C 1.460938 0 1.257812 -0.0195312 1.09375 -0.0625 C 0.9375 -0.113281 0.804688 -0.191406 0.703125 -0.296875 C 0.609375 -0.410156 0.539062 -0.554688 0.5 -0.734375 C 0.457031 -0.910156 0.4375 -1.132812 0.4375 -1.40625 L 0.4375 -4.3125 L -0.0625 -4.3125 L -0.0625 -5.71875 L 0.4375 -5.71875 L 0.4375 -7.125 L 2.28125 -7.125 L 2.28125 -5.71875 L 3.171875 -5.71875 L 3.171875 -4.3125 L 2.28125 -4.3125 L 2.28125 -1.828125 C 2.28125 -1.671875 2.3125 -1.5625 2.375 -1.5 C 2.4375 -1.4375 2.539062 -1.40625 2.6875 -1.40625 L 3.171875 -1.40625 L 3.171875 0 Z M 1.703125 0 "/></g></g></g><g fill="#ffffff" fill-opacity="1"><g transform="translate(40.927526, 25.640338)"><g><path d="M 0.34375 -5.9375 L 2.1875 -5.9375 L 2.1875 0 L 0.34375 0 Z M 0.34375 -7.75 L 2.1875 -7.75 L 2.1875 -6.484375 L 0.34375 -6.484375 Z M 0.34375 -7.75 "/></g></g></g><g fill="#ffffff" fill-opacity="1"><g transform="translate(43.444208, 25.640338)"><g><path d="M 2.078125 0 C 1.628906 0 1.289062 -0.0195312 1.0625 -0.0625 C 0.84375 -0.113281 0.675781 -0.191406 0.5625 -0.296875 C 0.5 -0.359375 0.453125 -0.414062 0.421875 -0.46875 C 0.390625 -0.519531 0.363281 -0.585938 0.34375 -0.671875 C 0.320312 -0.765625 0.304688 -0.882812 0.296875 -1.03125 C 0.296875 -1.1875 0.296875 -1.394531 0.296875 -1.65625 L 0.296875 -4.28125 C 0.296875 -4.539062 0.296875 -4.742188 0.296875 -4.890625 C 0.304688 -5.046875 0.320312 -5.164062 0.34375 -5.25 C 0.363281 -5.34375 0.390625 -5.414062 0.421875 -5.46875 C 0.453125 -5.53125 0.5 -5.585938 0.5625 -5.640625 C 0.675781 -5.742188 0.84375 -5.816406 1.0625 -5.859375 C 1.289062 -5.910156 1.628906 -5.9375 2.078125 -5.9375 L 3.09375 -5.9375 C 3.539062 -5.9375 3.875 -5.910156 4.09375 -5.859375 C 4.320312 -5.816406 4.492188 -5.742188 4.609375 -5.640625 C 4.660156 -5.585938 4.703125 -5.53125 4.734375 -5.46875 C 4.773438 -5.414062 4.804688 -5.34375 4.828125 -5.25 C 4.847656 -5.164062 4.859375 -5.046875 4.859375 -4.890625 C 4.859375 -4.742188 4.859375 -4.539062 4.859375 -4.28125 L 4.859375 -1.65625 C 4.859375 -1.394531 4.859375 -1.1875 4.859375 -1.03125 C 4.859375 -0.882812 4.847656 -0.765625 4.828125 -0.671875 C 4.804688 -0.585938 4.773438 -0.519531 4.734375 -0.46875 C 4.703125 -0.414062 4.660156 -0.359375 4.609375 -0.296875 C 4.492188 -0.191406 4.320312 -0.113281 4.09375 -0.0625 C 3.875 -0.0195312 3.539062 0 3.09375 0 Z M 3.015625 -3.890625 C 3.015625 -4.109375 2.976562 -4.269531 2.90625 -4.375 C 2.84375 -4.476562 2.726562 -4.53125 2.5625 -4.53125 C 2.28125 -4.53125 2.140625 -4.316406 2.140625 -3.890625 L 2.140625 -2.015625 C 2.140625 -1.796875 2.175781 -1.632812 2.25 -1.53125 C 2.320312 -1.425781 2.4375 -1.375 2.59375 -1.375 C 2.875 -1.375 3.015625 -1.585938 3.015625 -2.015625 Z M 3.015625 -3.890625 "/></g></g></g><g fill="#ffffff" fill-opacity="1"><g transform="translate(48.605144, 25.640338)"><g><path d="M 0.34375 -5.9375 L 2.1875 -5.9375 L 2.1875 -5.3125 C 2.257812 -5.4375 2.335938 -5.539062 2.421875 -5.625 C 2.503906 -5.71875 2.59375 -5.785156 2.6875 -5.828125 C 2.789062 -5.878906 2.90625 -5.914062 3.03125 -5.9375 C 3.164062 -5.957031 3.320312 -5.96875 3.5 -5.96875 C 3.875 -5.96875 4.15625 -5.929688 4.34375 -5.859375 C 4.539062 -5.785156 4.679688 -5.660156 4.765625 -5.484375 C 4.796875 -5.421875 4.816406 -5.367188 4.828125 -5.328125 C 4.847656 -5.285156 4.859375 -5.21875 4.859375 -5.125 C 4.867188 -5.03125 4.875 -4.890625 4.875 -4.703125 C 4.882812 -4.523438 4.890625 -4.269531 4.890625 -3.9375 L 4.890625 0 L 3.046875 0 L 3.046875 -3.921875 C 3.046875 -4.367188 2.894531 -4.59375 2.59375 -4.59375 C 2.320312 -4.59375 2.1875 -4.363281 2.1875 -3.90625 L 2.1875 0 L 0.34375 0 Z M 0.34375 -5.9375 "/></g></g></g><g fill="#ffffff" fill-opacity="1"><g transform="translate(53.824072, 25.640338)"><g><path d="M 0.25 -1.40625 L 2.0625 -1.40625 L 2.0625 -2.15625 L 1.15625 -2.15625 C 0.9375 -2.15625 0.769531 -2.171875 0.65625 -2.203125 C 0.539062 -2.242188 0.453125 -2.304688 0.390625 -2.390625 C 0.359375 -2.441406 0.332031 -2.484375 0.3125 -2.515625 C 0.300781 -2.554688 0.285156 -2.609375 0.265625 -2.671875 C 0.253906 -2.742188 0.25 -2.835938 0.25 -2.953125 C 0.25 -3.078125 0.25 -3.25 0.25 -3.46875 L 0.25 -4.875 C 0.25 -5.144531 0.28125 -5.351562 0.34375 -5.5 C 0.414062 -5.644531 0.53125 -5.757812 0.6875 -5.84375 C 0.757812 -5.875 0.859375 -5.894531 0.984375 -5.90625 C 1.109375 -5.925781 1.273438 -5.9375 1.484375 -5.9375 L 3.765625 -5.9375 L 3.765625 -4.546875 L 2.09375 -4.546875 L 2.09375 -3.84375 L 2.734375 -3.84375 C 3.035156 -3.84375 3.269531 -3.816406 3.4375 -3.765625 C 3.601562 -3.710938 3.726562 -3.617188 3.8125 -3.484375 C 3.84375 -3.429688 3.867188 -3.375 3.890625 -3.3125 C 3.910156 -3.257812 3.925781 -3.1875 3.9375 -3.09375 C 3.945312 -3 3.953125 -2.878906 3.953125 -2.734375 C 3.960938 -2.597656 3.96875 -2.414062 3.96875 -2.1875 L 3.96875 -1.375 C 3.96875 -1.289062 3.957031 -1.171875 3.9375 -1.015625 C 3.914062 -0.867188 3.898438 -0.753906 3.890625 -0.671875 C 3.847656 -0.515625 3.765625 -0.375 3.640625 -0.25 C 3.515625 -0.125 3.375 -0.0507812 3.21875 -0.03125 C 3.164062 -0.0195312 3.097656 -0.015625 3.015625 -0.015625 C 2.941406 -0.015625 2.789062 -0.0078125 2.5625 0 L 0.25 0 Z M 0.25 -1.40625 "/></g></g></g></svg>